<?xml version="1.0" encoding="iso-8859-1"?>
<!-- Generator: Adobe Illustrator 16.0.0, SVG Export Plug-In . SVG Version: 6.00 Build 0)  -->
<!DOCTYPE svg PUBLIC "-//W3C//DTD SVG 1.1//EN" "http://www.w3.org/Graphics/SVG/1.1/DTD/svg11.dtd">
<svg version="1.1" id="Capa_1" xmlns="http://www.w3.org/2000/svg" xmlns:xlink="http://www.w3.org/1999/xlink" x="0px" y="0px"
	 width="567.465px" height="567.464px" viewBox="0 0 567.465 567.464" style="enable-background:new 0 0 567.465 567.464;"
	 xml:space="preserve">
<g>
	<g>
		<polygon points="297.46,449.636 301.462,400.676 190.623,400.676 194.625,449.636 		"/>
		<polygon points="318.381,385.375 419.257,385.375 440.423,302.756 325.043,302.756 		"/>
		<polygon points="76.91,400.676 89.627,449.636 178.992,449.636 174.989,400.676 		"/>
		<polygon points="415.175,400.676 317.096,400.676 313.093,449.636 402.457,449.636 		"/>
		<path d="M495.148,155.876c-5.126,0-9.361,1.799-12.742,4.045c-1.983,1.077-3.926,2.708-5.777,4.559
			c-21.104,21.132-42.21,42.403-63.317,63.535c-2.313,2.316-3.95,4.36-5.07,7.42h-77.568l-4.349,52.02h118.178l8.917-33.02
			c16.848-16.87,33.696-34.3,50.545-49.6h40.551c30.601,0,30.601-48.96,0-48.96H495.148z"/>
		<polygon points="181.391,287.456 310.694,287.456 315.046,235.436 177.04,235.436 		"/>
		<polygon points="173.704,385.375 167.042,302.756 51.662,302.756 72.828,385.375 		"/>
		<polygon points="33.764,235.436 47.58,287.456 165.757,287.456 161.409,235.436 		"/>
		<polygon points="309.412,302.756 182.673,302.756 189.338,385.375 302.747,385.375 		"/>
		<circle cx="136.828" cy="504.664" r="41.188"/>
		<circle cx="355.257" cy="504.664" r="41.188"/>
		<path d="M141.504,153.434l-21.429,20.857l152.872,33.4l-29.26-153.713l-21.429,20.857C117.669-32.617,0,55.872,0,55.872
			S56.531,66.135,141.504,153.434z"/>
	</g>
</g>
<g>
</g>
<g>
</g>
<g>
</g>
<g>
</g>
<g>
</g>
<g>
</g>
<g>
</g>
<g>
</g>
<g>
</g>
<g>
</g>
<g>
</g>
<g>
</g>
<g>
</g>
<g>
</g>
<g>
</g>
</svg>
